<svg id="Layer_1" data-name="Layer 1" xmlns="http://www.w3.org/2000/svg" xmlns:xlink="http://www.w3.org/1999/xlink" viewBox="0 0 945.74 965.66"><defs><style>.cls-1,.cls-31,.cls-32{fill:none;}.cls-2{fill:#faa74a;}.cls-3{fill:#ddbc7e;}.cls-4{fill:#f0bb72;}.cls-5{fill:#cf9a3e;}.cls-6{fill:#fbb273;}.cls-7{fill:#fdb913;}.cls-8{fill:#cf8b2d;}.cls-9{fill:#e5a944;}.cls-10{fill:#faa85f;}.cls-11{fill:#f1c586;}.cls-12{fill:#e4aa63;}.cls-13{fill:#e4a025;}.cls-14{fill:#f7943e;}.cls-15{fill:#ffe4af;}.cls-16{fill:#f2ce89;}.cls-17{fill:#ffd990;}.cls-18{fill:url(#Sapphire);}.cls-19{fill:#ffde17;}.cls-20,.cls-33,.cls-34{fill:#231f20;}.cls-20,.cls-23,.cls-24,.cls-31,.cls-33{stroke:#231f20;}.cls-20,.cls-21,.cls-23,.cls-24,.cls-31,.cls-32,.cls-33{stroke-miterlimit:10;}.cls-21,.cls-22{fill:#fff;}.cls-21{stroke:#fff;}.cls-23{fill:url(#Stars_Circle_Color);}.cls-24{fill:#b1c0c9;}.cls-25{fill:url(#White_Black);}.cls-26{fill:url(#White_Black-2);}.cls-27{fill:url(#White_Black-3);}.cls-28{fill:url(#Fading_Sky);}.cls-29{fill:#ed1c24;}.cls-30{fill:#2e3192;}.cls-31{stroke-width:7px;}.cls-32{stroke-width:22px;stroke:url(#Orange_Yellow);}.cls-33{font-size:51.53px;font-family:TimesNewRomanPS-BoldMT, Times New Roman;font-weight:700;}.cls-35{fill:url(#Orange_Yellow-2);}.cls-36{fill:url(#Sapphire-2);}</style><linearGradient id="Sapphire" x1="247.45" y1="742.67" x2="795.5" y2="742.67" gradientUnits="userSpaceOnUse"><stop offset="0" stop-color="#282882"/><stop offset="0.1" stop-color="#2a2c85"/><stop offset="0.2" stop-color="#2f398d"/><stop offset="0.3" stop-color="#384e9a"/><stop offset="0.4" stop-color="#446bac"/><stop offset="0.49" stop-color="#5189bf"/><stop offset="0.6" stop-color="#3b5c99"/><stop offset="0.72" stop-color="#273478"/><stop offset="0.83" stop-color="#191860"/><stop offset="0.93" stop-color="#100651"/><stop offset="1" stop-color="#0d004c"/></linearGradient><pattern id="Stars_Circle_Color" data-name="Stars Circle Color" width="78.3" height="78.3" patternUnits="userSpaceOnUse" viewBox="0 0 78.3 78.3"><rect class="cls-1" width="78.3" height="78.3"/><path class="cls-2" d="M13.05,13.05"/><path class="cls-3" d="M13.05,26.1a13,13,0,0,1,13.05-13,13,13,0,0,1-13-13A13,13,0,0,1,0,13.05,13,13,0,0,1,13.05,26.1Z"/><path class="cls-2" d="M39.15,13.05"/><path class="cls-4" d="M39.15,26.1a13,13,0,0,1,13.05-13A13,13,0,0,1,39.15,0a13,13,0,0,1-13,13.05A13,13,0,0,1,39.15,26.1Z"/><path class="cls-2" d="M65.25,13.05"/><path class="cls-5" d="M65.25,26.1a13,13,0,0,1,13-13,13,13,0,0,1-13-13,13,13,0,0,1-13,13.05A13,13,0,0,1,65.25,26.1Z"/><path class="cls-2" d="M13.05,39.15"/><path class="cls-2" d="M13.05,52.2A13,13,0,0,1,26.1,39.15a13,13,0,0,1-13-13,13,13,0,0,1-13,13A13,13,0,0,1,13.05,52.2Z"/><path class="cls-2" d="M39.15,39.15"/><path class="cls-6" d="M39.15,52.2A13,13,0,0,1,52.2,39.15a13,13,0,0,1-13.05-13,13,13,0,0,1-13,13A13,13,0,0,1,39.15,52.2Z"/><path class="cls-2" d="M26.1,26.1"/><path class="cls-7" d="M26.1,39.15a13,13,0,0,1,13-13,13,13,0,0,1-13-13,13,13,0,0,1-13,13.05A13,13,0,0,1,26.1,39.15Z"/><path class="cls-2" d="M65.25,39.15"/><path class="cls-8" d="M65.25,52.2a13,13,0,0,1,13-13.05,13,13,0,0,1-13-13,13,13,0,0,1-13,13A13,13,0,0,1,65.25,52.2Z"/><path class="cls-2" d="M52.2,26.1"/><path class="cls-9" d="M52.2,39.15a13,13,0,0,1,13-13,13,13,0,0,1-13-13A13,13,0,0,1,39.15,26.1,13,13,0,0,1,52.2,39.15Z"/><path class="cls-10" d="M78.3,39.15a13,13,0,0,1,13-13,13,13,0,0,1-13-13,13,13,0,0,1-13,13.05A13,13,0,0,1,78.3,39.15Z"/><path class="cls-2" d="M13.05,65.25"/><path class="cls-9" d="M13.05,78.3a13,13,0,0,1,13.05-13,13,13,0,0,1-13-13,13,13,0,0,1-13,13A13,13,0,0,1,13.05,78.3Z"/><path class="cls-2" d="M39.15,65.25"/><path class="cls-11" d="M39.15,78.3a13,13,0,0,1,13.05-13,13,13,0,0,1-13.05-13,13,13,0,0,1-13,13A13,13,0,0,1,39.15,78.3Z"/><path class="cls-2" d="M26.1,52.2"/><path class="cls-5" d="M26.1,65.25a13,13,0,0,1,13-13,13,13,0,0,1-13-13.05,13,13,0,0,1-13,13.05A13,13,0,0,1,26.1,65.25Z"/><path class="cls-2" d="M65.25,65.25"/><path class="cls-12" d="M65.25,78.3a13,13,0,0,1,13-13,13,13,0,0,1-13-13,13,13,0,0,1-13,13A13,13,0,0,1,65.25,78.3Z"/><path class="cls-2" d="M52.2,52.2"/><path class="cls-13" d="M52.2,65.25a13,13,0,0,1,13-13,13,13,0,0,1-13-13.05A13,13,0,0,1,39.15,52.2,13,13,0,0,1,52.2,65.25Z"/><path class="cls-10" d="M78.3,65.25a13,13,0,0,1,13-13,13,13,0,0,1-13-13.05,13,13,0,0,1-13,13.05A13,13,0,0,1,78.3,65.25Z"/><path class="cls-10" d="M26.1,91.35a13,13,0,0,1,13-13,13,13,0,0,1-13-13,13,13,0,0,1-13,13A13,13,0,0,1,26.1,91.35Z"/><path class="cls-10" d="M52.2,91.35a13,13,0,0,1,13-13,13,13,0,0,1-13-13,13,13,0,0,1-13.05,13A13,13,0,0,1,52.2,91.35Z"/><path class="cls-14" d="M78.3,91.35a13,13,0,0,1,13-13,13,13,0,0,1-13-13,13,13,0,0,1-13,13A13,13,0,0,1,78.3,91.35Z"/><path class="cls-15" d="M13.05,26.1a13,13,0,0,1,13.05-13A13,13,0,0,1,13.05,26.1Z"/><path class="cls-15" d="M0,13.05A13,13,0,0,1,13.05,26.1,13,13,0,0,1,0,13.05Z"/><path class="cls-15" d="M26.1,13.05a13,13,0,0,1-13-13A13,13,0,0,1,26.1,13.05Z"/><path class="cls-16" d="M0,13.05A13,13,0,0,0,13.05,0,13,13,0,0,0,0,13.05Z"/><path class="cls-15" d="M39.15,26.1a13,13,0,0,1,13.05-13A13,13,0,0,1,39.15,26.1Z"/><path class="cls-17" d="M26.1,13.05a13,13,0,0,1,13,13.05A13,13,0,0,1,26.1,13.05Z"/><path class="cls-17" d="M52.2,13.05A13,13,0,0,1,39.15,0,13,13,0,0,1,52.2,13.05Z"/><path class="cls-15" d="M26.1,13.05a13,13,0,0,0,13-13A13,13,0,0,0,26.1,13.05Z"/><path class="cls-15" d="M65.25,26.1a13,13,0,0,1,13-13A13,13,0,0,1,65.25,26.1Z"/><path class="cls-16" d="M52.2,13.05a13,13,0,0,1,13,13.05A13,13,0,0,1,52.2,13.05Z"/><path class="cls-16" d="M78.3,13.05a13,13,0,0,1-13-13A13,13,0,0,1,78.3,13.05Z"/><path class="cls-15" d="M52.2,13.05a13,13,0,0,0,13-13A13,13,0,0,0,52.2,13.05Z"/><path class="cls-15" d="M13.05,52.2A13,13,0,0,1,26.1,39.15,13,13,0,0,1,13.05,52.2Z"/><path class="cls-17" d="M0,39.15A13,13,0,0,1,13.05,52.2,13,13,0,0,1,0,39.15Z"/><path class="cls-17" d="M26.1,39.15a13,13,0,0,1-13-13A13,13,0,0,1,26.1,39.15Z"/><path class="cls-15" d="M0,39.15a13,13,0,0,0,13.05-13A13,13,0,0,0,0,39.15Z"/><path class="cls-16" d="M39.15,52.2A13,13,0,0,1,52.2,39.15,13,13,0,0,1,39.15,52.2Z"/><path class="cls-15" d="M26.1,39.15a13,13,0,0,1,13,13.05A13,13,0,0,1,26.1,39.15Z"/><path class="cls-15" d="M52.2,39.15a13,13,0,0,1-13.05-13A13,13,0,0,1,52.2,39.15Z"/><path class="cls-16" d="M26.1,39.15a13,13,0,0,0,13-13A13,13,0,0,0,26.1,39.15Z"/><path class="cls-15" d="M65.25,52.2a13,13,0,0,1,13-13.05A13,13,0,0,1,65.25,52.2Z"/><path class="cls-17" d="M52.2,39.15a13,13,0,0,1,13,13.05A13,13,0,0,1,52.2,39.15Z"/><path class="cls-17" d="M78.3,39.15a13,13,0,0,1-13-13A13,13,0,0,1,78.3,39.15Z"/><path class="cls-15" d="M52.2,39.15a13,13,0,0,0,13-13A13,13,0,0,0,52.2,39.15Z"/><path class="cls-15" d="M13.05,78.3a13,13,0,0,1,13.05-13A13,13,0,0,1,13.05,78.3Z"/><path class="cls-16" d="M0,65.25a13,13,0,0,1,13.05,13A13,13,0,0,1,0,65.25Z"/><path class="cls-16" d="M26.1,65.25a13,13,0,0,1-13-13A13,13,0,0,1,26.1,65.25Z"/><path class="cls-15" d="M0,65.25a13,13,0,0,0,13.05-13A13,13,0,0,0,0,65.25Z"/><path class="cls-15" d="M39.15,78.3a13,13,0,0,1,13.05-13A13,13,0,0,1,39.15,78.3Z"/><path class="cls-17" d="M26.1,65.25a13,13,0,0,1,13,13A13,13,0,0,1,26.1,65.25Z"/><path class="cls-17" d="M52.2,65.25a13,13,0,0,1-13.05-13A13,13,0,0,1,52.2,65.25Z"/><path class="cls-15" d="M26.1,65.25a13,13,0,0,0,13-13A13,13,0,0,0,26.1,65.25Z"/><path class="cls-15" d="M65.25,78.3a13,13,0,0,1,13-13A13,13,0,0,1,65.25,78.3Z"/><path class="cls-15" d="M52.2,65.25a13,13,0,0,1,13,13A13,13,0,0,1,52.2,65.25Z"/><path class="cls-15" d="M78.3,65.25a13,13,0,0,1-13-13A13,13,0,0,1,78.3,65.25Z"/><path class="cls-15" d="M52.2,65.25a13,13,0,0,0,13-13A13,13,0,0,0,52.2,65.25Z"/><path class="cls-10" d="M0,39.15a13,13,0,0,1,13.05-13,13,13,0,0,1-13-13A13,13,0,0,1-13,26.1,13,13,0,0,1,0,39.15Z"/><path class="cls-10" d="M0,65.25a13,13,0,0,1,13.05-13A13,13,0,0,1,0,39.15,13,13,0,0,1-13,52.2,13,13,0,0,1,0,65.25Z"/><path class="cls-14" d="M0,91.35a13,13,0,0,1,13.05-13,13,13,0,0,1-13-13,13,13,0,0,1-13,13A13,13,0,0,1,0,91.35Z"/><path class="cls-10" d="M26.1,13.05a13,13,0,0,1,13-13,13,13,0,0,1-13-13A13,13,0,0,1,13.05,0,13,13,0,0,1,26.1,13.05Z"/><path class="cls-10" d="M52.2,13.05a13,13,0,0,1,13-13,13,13,0,0,1-13-13A13,13,0,0,1,39.15,0,13,13,0,0,1,52.2,13.05Z"/><path class="cls-14" d="M78.3,13.05a13,13,0,0,1,13-13,13,13,0,0,1-13-13A13,13,0,0,1,65.25,0,13,13,0,0,1,78.3,13.05Z"/><path class="cls-14" d="M0,13.05A13,13,0,0,1,13.05,0,13,13,0,0,1,0-13,13,13,0,0,1-13,0,13,13,0,0,1,0,13.05Z"/></pattern><linearGradient id="White_Black" x1="371.22" y1="423.19" x2="472.62" y2="423.19" gradientUnits="userSpaceOnUse"><stop offset="0" stop-color="#fff"/><stop offset="1" stop-color="#231f20"/></linearGradient><linearGradient id="White_Black-2" x1="464.09" y1="456.05" x2="588.37" y2="456.05" xlink:href="#White_Black"/><linearGradient id="White_Black-3" x1="504.04" y1="484.59" x2="606.18" y2="484.59" gradientTransform="matrix(1.18, 0.23, -0.33, 0.98, 88.58, -109.11)" xlink:href="#White_Black"/><linearGradient id="Fading_Sky" x1="473.67" y1="182.61" x2="548.99" y2="182.61" gradientUnits="userSpaceOnUse"><stop offset="0" stop-color="#2484c6"/><stop offset="1" stop-color="#2484c6" stop-opacity="0"/></linearGradient><linearGradient id="Orange_Yellow" y1="482.83" x2="945.74" y2="482.83" gradientUnits="userSpaceOnUse"><stop offset="0" stop-color="#fff33b"/><stop offset="0.04" stop-color="#fee72e"/><stop offset="0.12" stop-color="#fed51b"/><stop offset="0.2" stop-color="#fdca10"/><stop offset="0.28" stop-color="#fdc70c"/><stop offset="0.67" stop-color="#f3903f"/><stop offset="0.89" stop-color="#ed683c"/><stop offset="1" stop-color="#e93e3a"/></linearGradient><linearGradient id="Orange_Yellow-2" x1="238.7" y1="465.39" x2="795.82" y2="465.39" xlink:href="#Orange_Yellow"/><linearGradient id="Sapphire-2" x1="431.21" y1="821.09" x2="431.21" y2="821.09" xlink:href="#Sapphire"/></defs><path class="cls-18" d="M795.48,653.84c.49,1.72-11.56,3.59-24.6,13.14-17.82,13-14.38,23.46-29.42,31.14-12.91,6.58-28.56,5.6-33.22,5.31-14-.87-18.86-5.42-24.93-2.33-8.9,4.57-3.39,16.9-12.74,22.92-10,6.43-23.21-3.21-32,3.17-6.54,4.73-5.8,15.62-4.19,21.56,3.48,12.91,17.29,21.56,21.66,18.87,4-2.46-3.09-12.42,1.93-22.36,5.4-10.72,23.18-18.09,35.23-11.49,11.21,6.13,12.15,21.42,12.34,24.48,1.37,22-16.57,46.74-36.11,49.12-24,2.93-39.75-29.34-53.59-23-11.87,5.39-2.34,30-19,42.38-11.1,8.27-28.64,6.94-41.08,1.6-7-3-11.18-7.54-13.69-10.1-3.49-3.58-22.16-23.61-15.11-40,4.72-11,18.38-14.25,26.33-16.15,11.47-2.75,33-4.09,38.09,6.33,2.89,5.91-1.32,15.43-5.35,20.73s-8,6.23-8.52,10.54c-.74,5.72,5,12.52,8.43,11.82,3.92-.82,1.32-11.08,7-22.18,7.49-14.55,23.91-15.57,23.8-22.57-.11-8.05-28.88-20.22-57-14-25.19,5.59-25.11,20.37-61.64,34.89-30.85,12.27-44.16,7-49.25,4.35-2.38-1.24-11.3-6.06-14.55-16.09-4.27-13.13,3.24-28.87,13.78-33.7,13.87-6.35,28.92,8.06,31.41,4.6,3.41-4.74-21.75-35.85-53.88-40.93l-.84-.13c-6.09-.88-33.27-4.08-48.9,10.89-11,10.49-14.7,28.46-6,34.92,5.59,4.17,16.4,3.63,18.4.66,2.29-3.39-8.75-7.28-9.6-16.14-.95-10,11.16-26,28.26-27.37a25.87,25.87,0,0,1,11.33,1.55c11.48,4.36,15.42,16.91,16,18.65,6.52,20-9.93,46.18-30.59,57A57.36,57.36,0,0,1,379.89,792c-3.69.14-22.59,0-38.29-12.26-17.44-13.58-15.87-34.21-24.51-34.46-7.47-.22-8.34,15.18-19.92,19.91-14.75,6-41.79-7.36-48.26-29.11-8.18-27.54,19.89-57.56,36.77-55.91,12,1.17,12.41,17.89,26.68,21.16,16.52,3.8,24.65-16.64,54.69-28.93,20.63-8.44,52.13-12.84,67.44,1.18,11.39,10.43,4.31,24.27,13,27,13.61,4.15,31-29.49,63.08-34.92,28.47-4.81,62.87,16.23,63.23,34.91.26,13-15.9,27.93-28.49,26.37-18-2.22-24.12-37.42-33-35.54-4.52,1-7.31,11-5.44,18.79,3.14,13,19.35,18,28.14,20.63,8.55,2.62,29.14,8.88,45.87.4,24.32-12.31,18.26-44.55,37.42-50,12.79-3.64,21.09,9.12,35.42,3.86,11.75-4.29,11.72-14.88,22-16.91,8.91-1.75,11.2,5.7,28.35,9.66,6.74,1.55,16.78,3.87,27.47.74,12.93-3.79,13.5-10.94,28.42-18.3C776.65,652,794.9,651.75,795.48,653.84Z" transform="translate(-29.57 -12.72)"/><path class="cls-19" d="M526.06,347.34a22.88,22.88,0,0,1-6.18,10.56,32.13,32.13,0,0,1-6.68,4.55c-1.88,1.09-4.39,1.27-5.75,3s-1.53,4.54-2,6.48c-.83,3.17-1.61,6.36-2.4,9.54l-25-6.28c-1.4-.35-2.86-.63-4.24-1.06-1.58-.49-1-.72-.72-1.95s.67-2.62,1-3.94c.49-1.91,1-3.83,1.49-5.75.37-1.52,1.3-3.33,1-4.93-.36-2-2.6-3.45-3.83-5.07a22.3,22.3,0,0,1-3.36-6.25,22.85,22.85,0,0,1-.68-13.3c3.48-13.67,19.15-21.53,35-17.55S529.54,333.67,526.06,347.34Z" transform="translate(-29.57 -12.72)"/><path class="cls-20" d="M502.31,385.69h-.07l-2.71-.68-6.81-1.71-8.42-2.11-7.63-1.91-4.74-1.18-.06,0,0,0c0-.13.07-.27.11-.4l.05-.2s-.05-.21.06-.2a3.56,3.56,0,0,1,.39.09l1.45.36,5.26,1.32,7.1,1.78,7.32,1.83,5.93,1.49,1.57.39c.24.06,1.3.29,1.44.36s0,.22,0,.26-.09.37-.14.55Z" transform="translate(-29.57 -12.72)"/><path class="cls-20" d="M500.41,389.25l-.07,0-2.93-.73-7.27-1.82-8.8-2.2-7.61-1.9-3.69-.92-.07,0h0a.88.88,0,0,1,.05-.15s0,0,.36.07l.87.22,5.43,1.36,8,2,8.14,2,3.9,1,1.95.49,1,.25.8.2,0,0a.49.49,0,0,0-.05.16Z" transform="translate(-29.57 -12.72)"/><path class="cls-20" d="M500.35,392.88l-3.28-.82-7.77-1.95-9.18-2.3-10.24-2.56.22-.85,8.33,2.08,8.7,2.18,8.16,2,3.25.81,1.67.42c.37.09.36.09.34.17A4.25,4.25,0,0,1,500.35,392.88Z" transform="translate(-29.57 -12.72)"/><path class="cls-21" d="M474.79,368.28a21.52,21.52,0,0,0,4.33.48,38.88,38.88,0,0,0,5.63-.46h0a11.7,11.7,0,0,0,3.24-1.49,16.16,16.16,0,0,0,4.31-4.61h0a11.77,11.77,0,0,0,1.89,5,17.29,17.29,0,0,0,2.21,2.54,41.05,41.05,0,0,0,9.07,6.5" transform="translate(-29.57 -12.72)"/><path class="cls-22" d="M497.88,357.75a4.27,4.27,0,0,1-4.29,3.39c-2.1-.21-3.7-2.47-3.28-5Z" transform="translate(-29.57 -12.72)"/><polygon class="cls-20" points="449.08 382.94 445 381.94 446.14 377.36 450.22 378.37 449.08 382.94"/><polygon class="cls-20" points="459.42 385.69 455.65 384.76 456.78 380.19 460.56 381.12 459.42 385.69"/><path class="cls-23" d="M499.41,350.78a11.67,11.67,0,0,0-1,.76l-.67.61a17.39,17.39,0,0,0,2.19,3,16.71,16.71,0,0,0,4.4,3.45c-16.58-3.51-20.46-4.53-20.43-4.72s3.85.9,6.36-1.2a6.28,6.28,0,0,0,1.59-2.07l-.28-.8a35.39,35.39,0,0,0-4.1-7.86c-3.17-5.05,7.35-25.4,14.48-24s8.5,24.25,4,27.78C505.66,346.08,500.43,350.08,499.41,350.78Z" transform="translate(-29.57 -12.72)"/><path class="cls-24" d="M501.83,332.12c-1.12,1.41-3.5,1-3.9,1-1.75-.31-4-1.66-4.2-3.72-.23-2.59,2.93-5.18,5.4-4.61C502,325.4,503.4,330.17,501.83,332.12Z" transform="translate(-29.57 -12.72)"/><path class="cls-25" d="M374,396.72c-10.26,24.13,9.27,63.33,39.83,86.77-.71-4.45-1.58-8.84-2.64-13.17q8.22,1.15,16.82,1.72-2.13-8.12-5-15.9c5.59.28,11.3.36,17.11.21q-3.07-7.91-6.83-15.4,8.5-.34,17.27-1.35-4-7.61-8.59-14.75,8.55-1.11,17.29-2.93Q454.4,414.69,449,408q8.5-1.9,17.16-4.54-5.65-6.76-11.85-13,8.42-2.7,16.88-6.16-6.42-6.25-13.34-11.86,7.41-3.17,14.8-7C432.42,356.69,385,370.9,374,396.72Z" transform="translate(-29.57 -12.72)"/><path class="cls-26" d="M524.09,406.14c-5.64,2.31-11.28,4.36-16.88,6.17q6.19,6.18,11.85,13-8.64,2.64-17.17,4.54,5.43,6.69,10.27,13.93-8.75,1.81-17.29,2.93,4.61,7.14,8.58,14.75-8.76,1-17.27,1.34,3.76,7.5,6.83,15.41c-5.8.15-11.51.07-17.1-.21q2.86,7.77,5,15.9-8.58-.56-16.81-1.73,1.57,6.5,2.63,13.18c15.69,12,34.28,19.9,53.25,19.45,22.22-.53,51.3-12.64,63.23-39.17,12.69-28.23,0-59.63-16.27-76.51-10.9-11.27-25.58-18.29-41.38-21.76q-7.39,3.8-14.8,7Q517.65,399.89,524.09,406.14Z" transform="translate(-29.57 -12.72)"/><path class="cls-27" d="M603,528.86c25.56-2.81,48.3-31,52.1-60.18-3.36,2.21-6.6,4.52-9.68,6.91q-3.3-5.82-7.28-11.65-5.7,4.57-10.74,9.52-4-5.64-8.7-11.24a138.83,138.83,0,0,0-9.38,10.52q-4.69-5.42-10.09-10.74a131.84,131.84,0,0,0-7.91,11.42q-5.37-5.15-11.43-10.13a126.42,126.42,0,0,0-6.36,12.19q-6-4.82-12.71-9.41a120.26,120.26,0,0,0-4.72,12.84q-6.64-4.43-13.93-8.59a119.37,119.37,0,0,0-3,13.38c-4.33-2.39-8.85-4.7-13.52-6.92C539.06,506.49,575.61,531.87,603,528.86Z" transform="translate(-29.57 -12.72)"/><path class="cls-28" d="M547.69,217c-3.4,10.3-12.6,15-15.29,16.44-16.42,8.46-33.43-.46-36.31-2a49.54,49.54,0,0,1-18.58-17.7c-.38-.66-.69-1.21-.89-1.59a29.43,29.43,0,0,1-2.57-17.64c.62-4.12,2.41-16.06,10.84-23,4.66-3.82,7.33-2.8,8.38-5.62,1.75-4.71-6.77-10.38-7.81-15.95-.78-4.15,2.19-10.83,19.55-21.73-1.91,1.36-12.12,8.88-11.27,17.53a12,12,0,0,0,.52,2.49c2.5,7.85,10.75,7.95,13.56,12.62,5,8.27-13.69,22-9.23,31.66,1.94,4.22,7.66,6.55,12.15,6,10.75-1.24,12-18.54,19.75-19.06C539.27,178.91,553.33,199.88,547.69,217Z" transform="translate(-29.57 -12.72)"/><path class="cls-29" d="M549.81,237.06c2,1.2-10.45,18.76-33.16,20.51-26.63,2.07-46.23-19.24-44.72-20.35,1.32-1,18.49,13.12,42.15,12.12C535.32,248.44,548,236,549.81,237.06Z" transform="translate(-29.57 -12.72)"/><path class="cls-30" d="M569.68,245.86c2.68,1.21-12.73,34.24-51.31,37.63-45.2,4-73.19-37.06-71.25-38.17,1.76-1,31.34,29.14,68.4,27.16C548.43,270.73,567.19,244.73,569.68,245.86Z" transform="translate(-29.57 -12.72)"/><ellipse class="cls-31" cx="467.79" cy="475.46" rx="357.31" ry="365.01"/><ellipse class="cls-32" cx="472.87" cy="482.83" rx="461.87" ry="471.83"/><text class="cls-33" transform="matrix(0.1, -0.96, 0.99, 0.11, 85.8, 448.53)">C</text><text class="cls-33" transform="matrix(0.2, -0.94, 0.98, 0.21, 90.1, 409.5)">O</text><text class="cls-33" transform="matrix(0.29, -0.92, 0.95, 0.3, 99.03, 368.43)">L</text><text class="cls-33" transform="matrix(0.37, -0.89, 0.92, 0.39, 110.16, 333.55)">L</text><text class="cls-33" transform="translate(124.42 299.83) rotate(-62.07) scale(0.96 1)">E</text><text class="cls-33" transform="matrix(0.53, -0.8, 0.83, 0.55, 141.56, 267.57)">G</text><text class="cls-33" transform="matrix(0.61, -0.74, 0.77, 0.63, 165.07, 232.72)">E</text><text class="cls-33" transform="translate(188.72 204.56) rotate(-46.86) scale(0.96 1)"> </text><text class="cls-33" transform="matrix(0.71, -0.65, 0.68, 0.74, 199.48, 192.56)">O</text><text class="cls-33" transform="translate(230.68 164.41) rotate(-36.95) scale(0.96 1)">F</text><text class="cls-33" transform="matrix(0.8, -0.53, 0.55, 0.83, 256.65, 145.29)"> </text><text class="cls-33" transform="translate(270.1 136.26) rotate(-29.85) scale(0.96 1)">S</text><text class="cls-33" transform="matrix(0.87, -0.4, 0.41, 0.91, 297.05, 120.76)">C</text><text class="cls-33" transform="translate(333.09 104.9) rotate(-19.67) scale(0.96 1)">I</text><text class="cls-33" transform="translate(354.66 97.05) rotate(-15.04) scale(0.96 1)">E</text><text class="cls-33" transform="translate(389.95 87.68) rotate(-9.15) scale(0.96 1)">N</text><text class="cls-33" transform="translate(428.7 81.64) rotate(-3.08) scale(0.96 1)">C</text><text class="cls-33" transform="translate(467.91 79.77) rotate(2.71) scale(0.96 1)">E</text><text class="cls-33" transform="translate(504.61 82.01) rotate(6.8) scale(0.96 1)"> </text><text class="cls-33" transform="translate(517.99 83.24) rotate(10.7) scale(0.96 1)">A</text><text class="cls-33" transform="translate(556.49 90.7) rotate(16.8) scale(0.96 1)">N</text><text class="cls-33" transform="translate(593.96 102.21) rotate(22.86) scale(0.96 1)">D</text><text class="cls-33" transform="translate(630.11 118.08) rotate(27.13) scale(0.96 1)"> </text><text class="cls-33" transform="translate(643.81 124.82) rotate(31.03) scale(0.96 1)">T</text><text class="cls-33" transform="translate(675.04 143.81) rotate(36.53) scale(0.96 1)">E</text><text class="cls-33" transform="matrix(0.71, 0.64, -0.67, 0.74, 704.36, 165.66)">C</text><text class="cls-33" transform="translate(733.36 192.07) rotate(48.12) scale(0.96 1)">H</text><text class="cls-33" transform="translate(761.21 223.52) rotate(54.03) scale(0.96 1)">N</text><text class="cls-33" transform="matrix(0.48, 0.83, -0.87, 0.5, 784.17, 255.35)">O</text><text class="cls-33" transform="matrix(0.4, 0.87, -0.91, 0.41, 804.98, 291.85)">L</text><text class="cls-33" transform="translate(820.09 325.16) rotate(71.16) scale(0.96 1)">O</text><text class="cls-33" transform="translate(833.47 364.95) rotate(77.14) scale(0.96 1)">G</text><text class="cls-33" transform="translate(842.58 405.97) rotate(82.87) scale(0.96 1)">Y</text><text class="cls-33" transform="matrix(0.06, 0.96, -1, 0.06, 846.83, 443.42)"> </text><text class="cls-33" transform="translate(847.75 459.81) rotate(88.78) scale(0.96 1)"> </text><text class="cls-33" transform="matrix(-0.02, 0.96, -1, -0.02, 848.02, 476.17)"> </text><text class="cls-33" transform="translate(847.64 492.59) rotate(93.3) scale(0.96 1)"> </text><text class="cls-33" transform="translate(846.62 508.94) rotate(95.58) scale(0.96 1)"> </text><text class="cls-33" transform="matrix(-0.15, 0.95, -0.99, -0.16, 845.36, 524.19)">T</text><text class="cls-33" transform="matrix(-0.24, 0.93, -0.97, -0.25, 839.36, 560.32)">E</text><text class="cls-33" transform="translate(830.19 595.72) rotate(109.77) scale(0.96 1)">C</text><text class="cls-33" transform="matrix(-0.41, 0.87, -0.9, -0.43, 816.8, 632.64)">H</text><text class="cls-33" transform="translate(798.44 670.4) rotate(121.44) scale(0.96 1)">N</text><text class="cls-33" transform="translate(777.87 703.84) rotate(127.31) scale(0.96 1)">O</text><text class="cls-33" transform="translate(752.16 737.07) rotate(133.03) scale(0.96 1)">L</text><text class="cls-33" transform="translate(727.21 763.75) rotate(138.8) scale(0.96 1)">O</text><text class="cls-33" transform="translate(695.52 791.25) rotate(145.05) scale(0.96 1)">G</text><text class="cls-33" transform="translate(660.97 815.08) rotate(151.19) scale(0.96 1)">Y</text><text class="cls-33" transform="translate(627.75 832.81) rotate(155.16) scale(0.96 1)"> </text><text class="cls-33" transform="translate(612.98 839.63) rotate(158.2) scale(0.96 1)">I</text><text class="cls-33" transform="translate(591.76 848.33) rotate(163.03) scale(0.96 1)">N</text><text class="cls-33" transform="translate(554.2 859.6) rotate(169.13) scale(0.96 1)">C</text><text class="cls-33" transform="matrix(-0.96, 0.08, -0.08, -1, 515.66, 866.81)">U</text><text class="cls-33" transform="translate(476.51 869.84) rotate(-178.98) scale(0.96 1)">B</text><text class="cls-33" transform="matrix(-0.95, -0.11, 0.12, -0.99, 440.01, 869.09)">A</text><text class="cls-33" transform="translate(404.61 864.78) rotate(-167.83) scale(0.96 1)">T</text><text class="cls-33" transform="translate(368.85 856.63) rotate(-163.19) scale(0.96 1)">I</text><text class="cls-33" transform="translate(346.88 850.26) rotate(-158.16) scale(0.96 1)">O</text><text class="cls-33" transform="translate(308.04 834.4) rotate(-151.93) scale(0.96 1)">N</text><text class="cls-33" transform="translate(273.5 815.34) rotate(-147.71) scale(0.96 1)"> </text><text class="cls-33" transform="translate(259.69 806.95) rotate(-143.53) scale(0.96 1)">C</text><text class="cls-33" transform="matrix(-0.71, -0.64, 0.67, -0.74, 228.27, 783.42)">E</text><text class="cls-33" transform="matrix(-0.65, -0.71, 0.74, -0.67, 201.21, 758.81)">N</text><text class="cls-33" transform="translate(174.92 729.6) rotate(-126.81) scale(0.96 1)">T</text><text class="cls-33" transform="translate(153.1 700.26) rotate(-121.32) scale(0.96 1)">R</text><text class="cls-33" transform="matrix(-0.42, -0.86, 0.9, -0.44, 132.87, 666.56)">E</text><text class="cls-33" transform="translate(117.24 633.25) rotate(-112.07) scale(0.96 1)"> </text><text class="cls-33" transform="translate(111.16 618.04) rotate(-109.73) scale(0.96 1)"> </text><text class="cls-33" transform="matrix(-0.29, -0.92, 0.95, -0.3, 105.71, 602.6)"> </text><text class="cls-33" transform="translate(100.9 586.95) rotate(-105.05) scale(0.96 1)"> </text><text class="cls-33" transform="matrix(-0.21, -0.94, 0.98, -0.22, 96.72, 571.1)"> </text><text class="cls-33" transform="translate(93.19 555.11) rotate(-100.4) scale(0.96 1)"> </text><text class="cls-33" transform="translate(90.31 538.98) rotate(-98.09) scale(0.96 1)"> </text><text class="cls-33" transform="translate(88.08 522.74) rotate(-95.79) scale(0.96 1)"> </text><path class="cls-34" d="M473.68,401.33c1.73,3.4-1.55,6.44-4.2,8-3.09,1.77-6.51,3.26-8.67,6.23a9.35,9.35,0,0,0-.94,9.47c1.22,3.05,3.57,6.74,1.63,10-.38.63.34,1.15.88,1.23a1.9,1.9,0,0,0,1.89-.89c2-3.28.3-6.95-1.07-10.09a11,11,0,0,1-1.29-5.55,8,8,0,0,1,2.69-4.81c2.81-2.56,6.65-3.58,9.46-6.11,2.46-2.21,3.86-5.6,2.28-8.71-.59-1.17-3.35-.09-2.66,1.28Z" transform="translate(-29.57 -12.72)"/><path class="cls-34" d="M488.8,404.16c-1,3.1-3.61,5.09-6.52,6.25-3.45,1.38-7,2.43-10.38,4.08-2.44,1.2-5,2.78-6.38,5.19a12.41,12.41,0,0,0-1.16,4.15,32.31,32.31,0,0,1-1.69,5.15c-.37,1,2.53.64,2.9-.35a32.92,32.92,0,0,0,1.65-4.94c.33-1.56.35-3,1.28-4.35,1.76-2.61,5-3.9,7.79-5,5.72-2.28,13.31-3.81,15.41-10.51.32-1-2.59-.65-2.9.35Z" transform="translate(-29.57 -12.72)"/><path class="cls-35" d="M405,256.62a353.56,353.56,0,0,0-71.81,69.89,336.05,336.05,0,0,0-48.44,86.79c-2.9,7.75-5.49,15.6-7.7,23.51-1.09,3.95-2.13,7.92-3,11.88-.43,2-.84,4-1.18,5.89l-.24,1.4c0-.05-.06.4-.22,1.08l-.21.8-.19.72-.76,2.87a170.33,170.33,0,0,0-4.31,23.65,182.91,182.91,0,0,0-1,24.08l.23,6c.14,2,.34,4,.5,6,.09,1,.15,2,.27,3l.4,3c.29,2,.49,4,.84,5.93.75,3.92,1.38,7.86,2.4,11.7l.7,2.9.34,1.45c.13.48.28,1,.42,1.42l1.7,5.7.43,1.43.5,1.39,1,2.79,1,2.79c.33.93.66,1.86,1.07,2.76,1.6,3.62,3,7.3,4.87,10.77.89,1.76,1.75,3.53,2.65,5.27s1.9,3.39,2.9,5.06c2,3.32,4.15,6.56,6.44,9.69a143.81,143.81,0,0,0,33.23,32.45,194.75,194.75,0,0,0,41.75,22.13A274.24,274.24,0,0,0,415.79,666c7.91,1.57,15.9,2.74,23.91,3.78s16.05,2,24.11,2.54,16.15.9,24.19.88,16.06-.36,23.88-1.08c3.91-.35,7.77-.81,11.46-1.4,1.84-.31,3.65-.62,5.35-1s3.31-.75,4.59-1.15c.64-.2,1.2-.4,1.52-.53s.42-.26-.48.36a8.76,8.76,0,0,0-.94.77c-.24.22-.52.5-.76.77s-.67.76-1,1.17a14.75,14.75,0,0,0-1.09,1.79,14.93,14.93,0,0,0-1.05,2.63A15.7,15.7,0,0,0,529,679a15.39,15.39,0,0,0,.24,3.59,14.39,14.39,0,0,0,.88,2.94,14.57,14.57,0,0,0,1,2c.43.66.66,1,.93,1.32s.62.71.75.85a7.4,7.4,0,0,0,.57.55l.34.29.4.3c.26.15-.21-.16-.76-.45s-1.31-.67-2.13-1.06c-1.62-.76-3.5-1.59-5.41-2.43a267.27,267.27,0,0,1-24-11.73,163,163,0,0,1-23-15.51A131.25,131.25,0,0,1,459,639.83a128.16,128.16,0,0,1-14.85-23.54,151.73,151.73,0,0,1-9.56-25.47,190.94,190.94,0,0,1-5.35-26,229.28,229.28,0,0,1-2-26.12,118.5,118.5,0,0,1,.44-13.16,51.46,51.46,0,0,1,1.07-6.74,20.3,20.3,0,0,1,1.2-3.64,7.84,7.84,0,0,1,1.51-2.28,4.79,4.79,0,0,1,2.17-1.27,4.33,4.33,0,0,1,1.68-.06,4.68,4.68,0,0,1,1.37.47,7.88,7.88,0,0,1,2.27,2.06c.26.28.55.5.77.76a4.15,4.15,0,0,1,.47.84c.51,1.11.92,2.16,1.31,3.19.77,2.07,1.42,4.09,2.07,6.12,1.29,4,2.55,8,4,12a114.33,114.33,0,0,0,5,11.54,108.65,108.65,0,0,0,6.17,10.93c2.26,3.51,4.69,6.91,7.21,10.23s5.29,6.43,7.9,9.63c1.36,1.56,2.83,3,4.24,4.54s2.82,3,4.29,4.47l4.55,4.19c1.53,1.39,3,2.84,4.62,4.1,3.23,2.56,6.31,5.26,9.72,7.57l5,3.58,5.18,3.31c3.38,2.27,7,4.17,10.55,6.2,1.78,1,3.64,1.87,5.44,2.8s3.61,1.87,5.49,2.68l5.55,2.53,5.64,2.33c1.86.8,3.78,1.49,5.68,2.19s3.8,1.44,5.73,2.06c7.7,2.66,15.44,4.89,23.48,7C595.31,643.2,611,647.47,626,649c3.75.36,7.46.62,11.11.67s7.27-.1,10.83-.42c1.8-.08,3.55-.44,5.31-.65s3.5-.63,5.24-1c.86-.19,1.74-.32,2.6-.53l2.57-.7,2.57-.68c.86-.24,1.69-.57,2.54-.85a100.26,100.26,0,0,0,28.5-14.75c3-2.12,5.8-4.45,8.61-6.93s5.59-5.09,8.42-7.91l2.15-2.16,1.09-1.1,1-1,3.9-4.16,2-2.07,1.81-2.21,3.67-4.39c.63-.71,1.18-1.5,1.74-2.27l1.7-2.31,1.7-2.31c.57-.77,1.17-1.52,1.67-2.34A178.73,178.73,0,0,0,767,501a178.72,178.72,0,0,0-.22-23.93,184.6,184.6,0,0,0-3.6-23.85,205.29,205.29,0,0,0-6.53-23.4c-1.35-3.84-2.8-7.63-4.4-11.45s-3.27-7.41-5.14-11.07c-3.74-7.27-7.77-14.74-11.61-22.3s-7.64-15.07-11.76-22.37-8.51-14.39-13.15-21.32-9.6-13.66-14.83-20.2l.2.22-3.52-4.22-3.42-4q-3.45-4-7-7.83c-4.75-5.15-9.64-10.18-14.7-15s-10.3-9.49-15.75-13.9-11.13-8.54-16.94-12.5c-11.74-7.81-23.5-15.68-35.56-23A184.53,184.53,0,0,0,580.46,231a74.22,74.22,0,0,0-9.84-3.68,40.86,40.86,0,0,0-10.26-1.76,26.68,26.68,0,0,0-10.15,1.56c-3.23,1.18-6.15,3.13-9.22,4.92a57.6,57.6,0,0,1-9.66,4.64A61.19,61.19,0,0,1,521,239.36a52.5,52.5,0,0,1-10.71.75,31.57,31.57,0,0,1-5.39-.62,39.47,39.47,0,0,1-5.23-1.38,44.65,44.65,0,0,1-9.71-4.7c-1.51-.95-3-2-4.38-3.06a17.74,17.74,0,0,0-4.47-2.21,29.77,29.77,0,0,0-10.11-1.2,55.22,55.22,0,0,0-10.29,1.32,105.44,105.44,0,0,0-19.77,6.79C428.08,240.71,416.26,248.38,405,256.62Zm-3.13-4.49c6-3.91,12.12-7.57,18.44-10.87,3.16-1.67,6.35-3.27,9.58-4.77s6.5-3,9.82-4.26A114.81,114.81,0,0,1,460.2,226a61.78,61.78,0,0,1,10.7-1.26,32.11,32.11,0,0,1,10.8,1.47,19.69,19.69,0,0,1,4.95,2.55c1.44,1.08,2.81,2.1,4.27,3a42.58,42.58,0,0,0,9.27,4.59,37.74,37.74,0,0,0,5,1.37,30.1,30.1,0,0,0,5.12.62,50.89,50.89,0,0,0,10.38-.66,60.44,60.44,0,0,0,10.11-2.58,57.3,57.3,0,0,0,9.45-4.45c3-1.73,6-3.71,9.49-4.94a28.3,28.3,0,0,1,10.67-1.54A42.92,42.92,0,0,1,571,226.11a83.76,83.76,0,0,1,10,3.7,210.58,210.58,0,0,1,18.89,9.75c6.16,3.49,12.21,7.14,18.27,10.79l18.12,11c6,3.72,12,7.69,17.71,11.86s11.33,8.66,16.75,13.27,10.69,9.41,15.85,14.31q3.87,3.69,7.65,7.48l3.74,3.82,1.86,1.94,1.66,1.76.1.11.1.11q8.67,9.49,16.6,19.71c5.27,6.81,10.22,13.85,15,21l7.16,10.65L747.48,378c4.64,7.11,9.25,14.2,13.51,21.86,2.12,3.82,4.18,7.82,6.08,11.73s3.8,7.89,5.53,11.94a206.31,206.31,0,0,1,9,24.93,210.13,210.13,0,0,1,5.82,26.05,229.4,229.4,0,0,1,2.5,26.77c0,4.5.13,9-.1,13.54-.1,2.26-.23,4.51-.42,6.76s-.38,4.49-.6,6.74a211.89,211.89,0,0,1-4.62,26.73A195.91,195.91,0,0,1,776,581.2l-2.61,6.38c-.93,2.1-1.95,4.17-2.92,6.26L769,597c-.49,1-1.09,2-1.63,3.06L764,606.11c-1.12,2-2.45,3.95-3.68,5.92L758.45,615c-.63,1-1.24,2-2,2.89l-4.14,5.63-2.1,2.81L748,629l-4.54,5.33-1.15,1.32-1.11,1.2-2.26,2.42c-3.07,3.25-6.32,6.59-9.82,9.76a141.3,141.3,0,0,1-11,9.19,130.62,130.62,0,0,1-12.17,8c-1,.64-2.11,1.23-3.19,1.81s-2.15,1.16-3.24,1.71c-2.22,1-4.4,2.17-6.67,3.1l-3.38,1.43L686,675.57c-2.26.91-4.65,1.54-7,2.27-1.18.34-2.34.73-3.53,1l-3.6.84-3.59.83c-1.21.25-2.43.41-3.65.62-2.43.39-4.86.8-7.31,1s-4.9.51-7.34.51a115.65,115.65,0,0,1-14.56-.34l-3.59-.35c-1.19-.11-2.38-.23-3.55-.43l-3.52-.53c-1.18-.18-2.35-.37-3.49-.62a186.19,186.19,0,0,1-26.47-7.28c-4.2-1.49-8.32-3.05-12.35-4.63s-7.94-3.22-11.94-4.86c-8-3.32-16.16-7-24-11.11-2-1-3.92-2.07-5.85-3.15s-3.88-2.12-5.77-3.29l-5.69-3.42L523.66,639c-1.87-1.18-3.66-2.49-5.46-3.77s-3.62-2.53-5.36-3.89c-3.46-2.76-7-5.36-10.3-8.3l-5-4.32-4.78-4.54c-3.25-2.94-6.14-6.27-9.16-9.42-1.54-1.54-2.9-3.27-4.32-4.93l-4.2-5c-1.34-1.71-2.61-3.49-3.92-5.22s-2.63-3.46-3.85-5.25c-2.35-3.66-4.77-7.24-7-10.94s-4.22-7.53-6.16-11.37-3.83-7.68-5.7-11.53L443,538.89c-1.82-3.87-3.62-7.76-5.36-11.63l-2.56-5.72c-.43-.92-.86-1.81-1.3-2.59a2.5,2.5,0,0,1-.28-.57c-.05-.19,0-.43-.07-.59s-.33-.48.11-.22a2.07,2.07,0,0,0,.62.19,2.11,2.11,0,0,0,.9,0,1.88,1.88,0,0,0,.84-.43c.13-.14,0,.11-.14.4a16.15,16.15,0,0,0-.58,2.45,45.74,45.74,0,0,0-.47,5.86,96.89,96.89,0,0,0,.53,12.24,125,125,0,0,0,5.11,24.14A142.46,142.46,0,0,0,449.55,585a127.66,127.66,0,0,0,12.81,20.08,138.73,138.73,0,0,0,34,30.7A169.29,169.29,0,0,0,516.46,647c3.52,1.67,7.1,3.25,10.78,4.79s7.43,3,11.4,4.58c2,.81,4,1.62,6.26,2.59,1.11.48,2.3,1,3.61,1.66a38.86,38.86,0,0,1,4.73,2.74c.55.4,1,.69,1.67,1.26.32.26.62.5.94.79s.77.73,1.14,1.11a17.73,17.73,0,0,1,1.28,1.45,16.89,16.89,0,0,1,1.39,2,19.13,19.13,0,0,1,1.41,2.74,18.31,18.31,0,0,1,1.1,3.7,17.77,17.77,0,0,1,.3,4.37,18.47,18.47,0,0,1-.72,4.23,19.22,19.22,0,0,1-1.34,3.36,19.79,19.79,0,0,1-1.52,2.47,18.94,18.94,0,0,1-1.45,1.78c-.42.46-.89.94-1.32,1.34A26.39,26.39,0,0,1,554,695.7a28,28,0,0,1-3.4,2.09l-1.4.69-1.27.57c-1.64.68-3.08,1.18-4.46,1.63-2.76.87-5.25,1.48-7.7,2s-4.81,1-7.15,1.32c-4.67.72-9.23,1.22-13.77,1.6a351.74,351.74,0,0,1-53.45-.17c-8.83-.67-17.64-1.57-26.39-3s-17.44-3.27-26.07-5.36A298.76,298.76,0,0,1,358.21,680a222.1,222.1,0,0,1-46.56-27.67,169.82,169.82,0,0,1-37.3-40.09q-3.8-5.76-7.07-11.82c-1.08-2-2.13-4.07-3.13-6.13s-1.85-4.14-2.78-6.21c-1.94-4.1-3.39-8.41-5-12.63-.41-1.06-.74-2.14-1.07-3.22l-1-3.24-1-3.23-.49-1.62-.41-1.65-1.62-6.56c-.14-.55-.28-1.09-.4-1.64l-.32-1.66-.63-3.31c-.94-4.4-1.46-8.87-2.08-13.3-.28-2.23-.41-4.46-.63-6.69l-.28-3.35c-.08-1.11-.1-2.23-.15-3.35-.08-2.23-.19-4.46-.24-6.69l.06-6.69a202.17,202.17,0,0,1,2.34-26.59,187,187,0,0,1,6-26l1-3.23.26-.8c0-.09.14-.47,0,0s-.13.6-.07.29l.37-1.71c.5-2.22,1.05-4.36,1.63-6.5,1.14-4.27,2.44-8.44,3.8-12.6q4.13-12.42,9.28-24.37a348.89,348.89,0,0,1,54.43-87.64A361.61,361.61,0,0,1,401.86,252.13Z" transform="translate(-29.57 -12.72)"/><path class="cls-36" d="M431.21,821.09" transform="translate(-29.57 -12.72)"/></svg>